<svg xmlns="http://www.w3.org/2000/svg" xmlns:ns1="http://sozi.baierouge.fr" xmlns:svg="http://www.w3.org/2000/svg" xmlns:xlink="http://www.w3.org/1999/xlink" id="svg1399" version="1.0" viewBox="0 0 1269.4 1269.4"><defs id="defs3"><linearGradient id="linearGradient2171"><stop id="stop2173" offset="0" style="stop-color:#0600f6"/><stop id="stop2175" offset="1" style="stop-color:#f66200;stop-opacity:0"/></linearGradient><linearGradient id="linearGradient4173" x1="321.63" x2="361.43" y1="486.25" y2="117.91" gradientTransform="matrix(-.19421 .40979 .89783 .41303 -31.624 -6.9061)" gradientUnits="userSpaceOnUse" xlink:href="#linearGradient2171"/><linearGradient id="linearGradient4176" x1="321.63" x2="361.43" y1="486.25" y2="117.91" gradientTransform="matrix(-.30917 .33430 .73243 .65753 107.52 -108.64)" gradientUnits="userSpaceOnUse" xlink:href="#linearGradient2171"/><linearGradient id="linearGradient4179" x1="321.63" x2="361.43" y1="486.25" y2="117.91" gradientTransform="matrix(-.41719 .18866 .41335 .88726 326.21 -169.52)" gradientUnits="userSpaceOnUse" xlink:href="#linearGradient2171"/><linearGradient id="linearGradient4182" x1="321.63" x2="361.43" y1="486.25" y2="117.91" gradientTransform="matrix(.19421 .40979 -.89783 .41303 784.35 -4.401)" gradientUnits="userSpaceOnUse" xlink:href="#linearGradient2171"/><linearGradient id="linearGradient4185" x1="321.63" x2="361.43" y1="486.25" y2="117.91" gradientTransform="matrix(.30917 .33430 -.73243 .65753 645.79 -106.63)" gradientUnits="userSpaceOnUse" xlink:href="#linearGradient2171"/><linearGradient id="linearGradient4188" x1="321.63" x2="361.43" y1="486.25" y2="117.91" gradientTransform="matrix(.41719 .18866 -.41335 .88726 427.72 -169.22)" gradientUnits="userSpaceOnUse" xlink:href="#linearGradient2171"/><linearGradient id="linearGradient4191" x1="321.63" x2="361.43" y1="486.25" y2="117.91" gradientTransform="matrix(.45903 0 0 .97625 182.22 -136.76)" gradientUnits="userSpaceOnUse" xlink:href="#linearGradient2171"/><radialGradient id="radialGradient4960" cx="1978.5" cy="-1520.4" r="2268.1" gradientUnits="userSpaceOnUse"><stop id="stop4956" offset="0" style="stop-color:#fff"/><stop id="stop4966" offset=".307" style="stop-color:#ccc8f4;stop-opacity:.87451"/><stop id="stop4964" offset=".568" style="stop-color:#9992e9;stop-opacity:.74902"/><stop id="stop4962" offset=".657" style="stop-color:#3425d4;stop-opacity:.49804"/><stop id="stop4958" offset="1" style="stop-color:#3425d4;stop-opacity:0"/></radialGradient></defs><g id="layer1" transform="translate(214.3 -601.51)"><g id="g4442" transform="matrix(.5 0 0 .5 232.2 599.83)"><g id="g4193"><path id="path2212" d="m376.45 4.0316c-48.67 31.124-82.69 101.87-82.69 184.14 0 82.273 34.021 152.99 82.687 184.12 48.666-31.125 82.687-101.84 82.687-184.12 0-82.273-34.021-153.02-82.687-184.14z" style="stroke-linejoin:round;stroke-opacity:.83784;fill-rule:evenodd;stroke:#e9001d;stroke-linecap:round;stroke-width:1.3389;fill:url(#linearGradient4191)"/><path id="path2216" d="m544.64 38.568c-32.848 4.7412-66.822 23.286-96.412 52.256 11.232 29.067 17.662 62.595 17.662 98.3 0 80.029-32.254 149-78.802 181.35 0.55227 0.91087 1.0424 1.8812 1.6151 2.7719 57.408-8.286 118.29-58.587 153.12-133.36 34.834-74.773 33.865-153.03 2.8134-201.32z" style="stroke-linejoin:round;stroke-opacity:.83784;fill-rule:evenodd;stroke:#e9001d;stroke-linecap:round;stroke-width:1.3389;fill:url(#linearGradient4188)"/><path id="path3067" d="m637.53 125.41c-20.461-0.21032-42.373 3.573-64.526 11.036-0.77417 33.954-9.1584 70.833-25.972 106.92-34.703 74.49-95.256 124.66-152.47 133.23 0.0559 0.35461 0.0712 0.72461 0.13021 1.078 56.129 14.478 132.09-8.393 193.81-63.805 61.724-55.412 91.901-127.82 82.475-184.23-10.524-2.7147-21.753-4.1146-33.449-4.2349z" style="stroke-linejoin:round;stroke-opacity:.83784;fill-rule:evenodd;stroke:#e9001d;stroke-linecap:round;stroke-width:1.3389;fill:url(#linearGradient4185)"/><path id="path3086" d="m668 207.17c-12.554 38.428-38.153 77.872-75.259 111.18-60.36 54.187-134.28 77.172-190.01 64.627-1.4134 0.26082-2.8364 0.58512-4.2462 0.79564-0.0358 0.19632-0.0764 0.39462-0.1042 0.59031 49.214 30.277 128.65 30.727 204.31-4.0809 75.663-34.808 126.33-95.123 134.37-151.74-19.108-11.755-42.826-18.937-69.059-21.38z" style="stroke-linejoin:round;stroke-opacity:.83784;fill-rule:evenodd;stroke:#e9001d;stroke-linecap:round;stroke-width:1.3389;fill:url(#linearGradient4182)"/><path id="path3090" d="m209.29 38.27c32.848 4.7412 66.822 23.286 96.412 52.256-11.232 29.067-17.662 62.595-17.662 98.3 0 80.029 32.254 149 78.802 181.35-0.55227 0.91087-1.0424 1.8812-1.6151 2.7719-57.4-8.28-118.28-58.58-153.12-133.36-34.83-74.77-33.86-153.03-2.81-201.32z" style="stroke-linejoin:round;stroke-opacity:.83784;fill-rule:evenodd;stroke:#e9001d;stroke-linecap:round;stroke-width:1.3389;fill:url(#linearGradient4179)"/><path id="path3094" d="m115.78 123.41c20.461-0.21032 42.373 3.573 64.526 11.036 0.77418 33.954 9.1584 70.833 25.972 106.92 34.703 74.49 95.256 124.66 152.47 133.23-0.0559 0.3546-0.0712 0.7246-0.13021 1.078-56.13 14.47-132.09-8.4-193.81-63.81-61.73-55.41-91.902-127.82-82.476-184.23 10.524-2.7147 21.753-4.1146 33.449-4.2349z" style="stroke-linejoin:round;stroke-opacity:.83784;fill-rule:evenodd;stroke:#e9001d;stroke-linecap:round;stroke-width:1.3389;fill:url(#linearGradient4176)"/><path id="path3098" d="m84.729 204.67c12.554 38.428 38.153 77.872 75.259 111.18 60.36 54.187 134.28 77.172 190.01 64.627 1.4134 0.26083 2.8364 0.58513 4.2462 0.79564 0.0358 0.19632 0.0764 0.39463 0.1042 0.59032-49.214 30.277-128.65 30.727-204.31-4.0809-75.667-34.82-126.34-95.13-134.37-151.74 19.107-11.76 42.825-18.94 69.059-21.38z" style="stroke-linejoin:round;stroke-opacity:.83784;fill-rule:evenodd;stroke:#e9001d;stroke-linecap:round;stroke-width:1.3389;fill:url(#linearGradient4173)"/></g><g id="g4202" transform="matrix(.70711 -.70711 .70711 .70711 -789.72 638.9)"><path id="path4204" d="m376.45 4.0316c-48.67 31.124-82.69 101.87-82.69 184.14 0 82.273 34.021 152.99 82.687 184.12 48.666-31.125 82.687-101.84 82.687-184.12 0-82.273-34.021-153.02-82.687-184.14z" style="stroke-linejoin:round;stroke-opacity:.83784;fill-rule:evenodd;stroke:#e9001d;stroke-linecap:round;stroke-width:1.3389;fill:url(#linearGradient4191)"/><path id="path4206" d="m544.64 38.568c-32.848 4.7412-66.822 23.286-96.412 52.256 11.232 29.067 17.662 62.595 17.662 98.3 0 80.029-32.254 149-78.802 181.35 0.55227 0.91087 1.0424 1.8812 1.6151 2.7719 57.408-8.286 118.29-58.587 153.12-133.36 34.834-74.773 33.865-153.03 2.8134-201.32z" style="stroke-linejoin:round;stroke-opacity:.83784;fill-rule:evenodd;stroke:#e9001d;stroke-linecap:round;stroke-width:1.3389;fill:url(#linearGradient4188)"/><path id="path4208" d="m637.53 125.41c-20.461-0.21032-42.373 3.573-64.526 11.036-0.77417 33.954-9.1584 70.833-25.972 106.92-34.703 74.49-95.256 124.66-152.47 133.23 0.0559 0.35461 0.0712 0.72461 0.13021 1.078 56.129 14.478 132.09-8.393 193.81-63.805 61.724-55.412 91.901-127.82 82.475-184.23-10.524-2.7147-21.753-4.1146-33.449-4.2349z" style="stroke-linejoin:round;stroke-opacity:.83784;fill-rule:evenodd;stroke:#e9001d;stroke-linecap:round;stroke-width:1.3389;fill:url(#linearGradient4185)"/><path id="path4210" d="m668 207.17c-12.554 38.428-38.153 77.872-75.259 111.18-60.36 54.187-134.28 77.172-190.01 64.627-1.4134 0.26082-2.8364 0.58512-4.2462 0.79564-0.0358 0.19632-0.0764 0.39462-0.1042 0.59031 49.214 30.277 128.65 30.727 204.31-4.0809 75.663-34.808 126.33-95.123 134.37-151.74-19.108-11.755-42.826-18.937-69.059-21.38z" style="stroke-linejoin:round;stroke-opacity:.83784;fill-rule:evenodd;stroke:#e9001d;stroke-linecap:round;stroke-width:1.3389;fill:url(#linearGradient4182)"/><path id="path4212" d="m209.29 38.27c32.848 4.7412 66.822 23.286 96.412 52.256-11.232 29.067-17.662 62.595-17.662 98.3 0 80.029 32.254 149 78.802 181.35-0.55227 0.91087-1.0424 1.8812-1.6151 2.7719-57.4-8.28-118.28-58.58-153.12-133.36-34.83-74.77-33.86-153.03-2.81-201.32z" style="stroke-linejoin:round;stroke-opacity:.83784;fill-rule:evenodd;stroke:#e9001d;stroke-linecap:round;stroke-width:1.3389;fill:url(#linearGradient4179)"/><path id="path4214" d="m115.78 123.41c20.461-0.21032 42.373 3.573 64.526 11.036 0.77418 33.954 9.1584 70.833 25.972 106.92 34.703 74.49 95.256 124.66 152.47 133.23-0.0559 0.3546-0.0712 0.7246-0.13021 1.078-56.13 14.47-132.09-8.4-193.81-63.81-61.73-55.41-91.902-127.82-82.476-184.23 10.524-2.7147 21.753-4.1146 33.449-4.2349z" style="stroke-linejoin:round;stroke-opacity:.83784;fill-rule:evenodd;stroke:#e9001d;stroke-linecap:round;stroke-width:1.3389;fill:url(#linearGradient4176)"/><path id="path4216" d="m84.729 204.67c12.554 38.428 38.153 77.872 75.259 111.18 60.36 54.187 134.28 77.172 190.01 64.627 1.4134 0.26083 2.8364 0.58513 4.2462 0.79564 0.0358 0.19632 0.0764 0.39463 0.1042 0.59032-49.214 30.277-128.65 30.727-204.31-4.0809-75.667-34.82-126.34-95.13-134.37-151.74 19.107-11.76 42.825-18.94 69.059-21.38z" style="stroke-linejoin:round;stroke-opacity:.83784;fill-rule:evenodd;stroke:#e9001d;stroke-linecap:round;stroke-width:1.3389;fill:url(#linearGradient4173)"/></g><g id="g4232" transform="matrix(0 -1 1 0 -896.36 1649.1)"><path id="path4234" d="m376.45 4.0316c-48.67 31.124-82.69 101.87-82.69 184.14 0 82.273 34.021 152.99 82.687 184.12 48.666-31.125 82.687-101.84 82.687-184.12 0-82.273-34.021-153.02-82.687-184.14z" style="stroke-linejoin:round;stroke-opacity:.83784;fill-rule:evenodd;stroke:#e9001d;stroke-linecap:round;stroke-width:1.3389;fill:url(#linearGradient4191)"/><path id="path4236" d="m544.64 38.568c-32.848 4.7412-66.822 23.286-96.412 52.256 11.232 29.067 17.662 62.595 17.662 98.3 0 80.029-32.254 149-78.802 181.35 0.55227 0.91087 1.0424 1.8812 1.6151 2.7719 57.408-8.286 118.29-58.587 153.12-133.36 34.834-74.773 33.865-153.03 2.8134-201.32z" style="stroke-linejoin:round;stroke-opacity:.83784;fill-rule:evenodd;stroke:#e9001d;stroke-linecap:round;stroke-width:1.3389;fill:url(#linearGradient4188)"/><path id="path4238" d="m637.53 125.41c-20.461-0.21032-42.373 3.573-64.526 11.036-0.77417 33.954-9.1584 70.833-25.972 106.92-34.703 74.49-95.256 124.66-152.47 133.23 0.0559 0.35461 0.0712 0.72461 0.13021 1.078 56.129 14.478 132.09-8.393 193.81-63.805 61.724-55.412 91.901-127.82 82.475-184.23-10.524-2.7147-21.753-4.1146-33.449-4.2349z" style="stroke-linejoin:round;stroke-opacity:.83784;fill-rule:evenodd;stroke:#e9001d;stroke-linecap:round;stroke-width:1.3389;fill:url(#linearGradient4185)"/><path id="path4240" d="m668 207.17c-12.554 38.428-38.153 77.872-75.259 111.18-60.36 54.187-134.28 77.172-190.01 64.627-1.4134 0.26082-2.8364 0.58512-4.2462 0.79564-0.0358 0.19632-0.0764 0.39462-0.1042 0.59031 49.214 30.277 128.65 30.727 204.31-4.0809 75.663-34.808 126.33-95.123 134.37-151.74-19.108-11.755-42.826-18.937-69.059-21.38z" style="stroke-linejoin:round;stroke-opacity:.83784;fill-rule:evenodd;stroke:#e9001d;stroke-linecap:round;stroke-width:1.3389;fill:url(#linearGradient4182)"/><path id="path4242" d="m209.29 38.27c32.848 4.7412 66.822 23.286 96.412 52.256-11.232 29.067-17.662 62.595-17.662 98.3 0 80.029 32.254 149 78.802 181.35-0.55227 0.91087-1.0424 1.8812-1.6151 2.7719-57.4-8.28-118.28-58.58-153.12-133.36-34.83-74.77-33.86-153.03-2.81-201.32z" style="stroke-linejoin:round;stroke-opacity:.83784;fill-rule:evenodd;stroke:#e9001d;stroke-linecap:round;stroke-width:1.3389;fill:url(#linearGradient4179)"/><path id="path4244" d="m115.78 123.41c20.461-0.21032 42.373 3.573 64.526 11.036 0.77418 33.954 9.1584 70.833 25.972 106.92 34.703 74.49 95.256 124.66 152.47 133.23-0.0559 0.3546-0.0712 0.7246-0.13021 1.078-56.13 14.47-132.09-8.4-193.81-63.81-61.73-55.41-91.902-127.82-82.476-184.23 10.524-2.7147 21.753-4.1146 33.449-4.2349z" style="stroke-linejoin:round;stroke-opacity:.83784;fill-rule:evenodd;stroke:#e9001d;stroke-linecap:round;stroke-width:1.3389;fill:url(#linearGradient4176)"/><path id="path4246" d="m84.729 204.67c12.554 38.428 38.153 77.872 75.259 111.18 60.36 54.187 134.28 77.172 190.01 64.627 1.4134 0.26083 2.8364 0.58513 4.2462 0.79564 0.0358 0.19632 0.0764 0.39463 0.1042 0.59032-49.214 30.277-128.65 30.727-204.31-4.0809-75.667-34.82-126.34-95.13-134.37-151.74 19.107-11.76 42.825-18.94 69.059-21.38z" style="stroke-linejoin:round;stroke-opacity:.83784;fill-rule:evenodd;stroke:#e9001d;stroke-linecap:round;stroke-width:1.3389;fill:url(#linearGradient4173)"/></g><g id="g4262" transform="matrix(-.70711 -.70711 .70711 -.70711 -257.46 2438.8)"><path id="path4264" d="m376.45 4.0316c-48.67 31.124-82.69 101.87-82.69 184.14 0 82.273 34.021 152.99 82.687 184.12 48.666-31.125 82.687-101.84 82.687-184.12 0-82.273-34.021-153.02-82.687-184.14z" style="stroke-linejoin:round;stroke-opacity:.83784;fill-rule:evenodd;stroke:#e9001d;stroke-linecap:round;stroke-width:1.3389;fill:url(#linearGradient4191)"/><path id="path4266" d="m544.64 38.568c-32.848 4.7412-66.822 23.286-96.412 52.256 11.232 29.067 17.662 62.595 17.662 98.3 0 80.029-32.254 149-78.802 181.35 0.55227 0.91087 1.0424 1.8812 1.6151 2.7719 57.408-8.286 118.29-58.587 153.12-133.36 34.834-74.773 33.865-153.03 2.8134-201.32z" style="stroke-linejoin:round;stroke-opacity:.83784;fill-rule:evenodd;stroke:#e9001d;stroke-linecap:round;stroke-width:1.3389;fill:url(#linearGradient4188)"/><path id="path4268" d="m637.53 125.41c-20.461-0.21032-42.373 3.573-64.526 11.036-0.77417 33.954-9.1584 70.833-25.972 106.92-34.703 74.49-95.256 124.66-152.47 133.23 0.0559 0.35461 0.0712 0.72461 0.13021 1.078 56.129 14.478 132.09-8.393 193.81-63.805 61.724-55.412 91.901-127.82 82.475-184.23-10.524-2.7147-21.753-4.1146-33.449-4.2349z" style="stroke-linejoin:round;stroke-opacity:.83784;fill-rule:evenodd;stroke:#e9001d;stroke-linecap:round;stroke-width:1.3389;fill:url(#linearGradient4185)"/><path id="path4270" d="m668 207.17c-12.554 38.428-38.153 77.872-75.259 111.18-60.36 54.187-134.28 77.172-190.01 64.627-1.4134 0.26082-2.8364 0.58512-4.2462 0.79564-0.0358 0.19632-0.0764 0.39462-0.1042 0.59031 49.214 30.277 128.65 30.727 204.31-4.0809 75.663-34.808 126.33-95.123 134.37-151.74-19.108-11.755-42.826-18.937-69.059-21.38z" style="stroke-linejoin:round;stroke-opacity:.83784;fill-rule:evenodd;stroke:#e9001d;stroke-linecap:round;stroke-width:1.3389;fill:url(#linearGradient4182)"/><path id="path4272" d="m209.29 38.27c32.848 4.7412 66.822 23.286 96.412 52.256-11.232 29.067-17.662 62.595-17.662 98.3 0 80.029 32.254 149 78.802 181.35-0.55227 0.91087-1.0424 1.8812-1.6151 2.7719-57.4-8.28-118.28-58.58-153.12-133.36-34.83-74.77-33.86-153.03-2.81-201.32z" style="stroke-linejoin:round;stroke-opacity:.83784;fill-rule:evenodd;stroke:#e9001d;stroke-linecap:round;stroke-width:1.3389;fill:url(#linearGradient4179)"/><path id="path4274" d="m115.78 123.41c20.461-0.21032 42.373 3.573 64.526 11.036 0.77418 33.954 9.1584 70.833 25.972 106.92 34.703 74.49 95.256 124.66 152.47 133.23-0.0559 0.3546-0.0712 0.7246-0.13021 1.078-56.13 14.47-132.09-8.4-193.81-63.81-61.73-55.41-91.902-127.82-82.476-184.23 10.524-2.7147 21.753-4.1146 33.449-4.2349z" style="stroke-linejoin:round;stroke-opacity:.83784;fill-rule:evenodd;stroke:#e9001d;stroke-linecap:round;stroke-width:1.3389;fill:url(#linearGradient4176)"/><path id="path4276" d="m84.729 204.67c12.554 38.428 38.153 77.872 75.259 111.18 60.36 54.187 134.28 77.172 190.01 64.627 1.4134 0.26083 2.8364 0.58513 4.2462 0.79564 0.0358 0.19632 0.0764 0.39463 0.1042 0.59032-49.214 30.277-128.65 30.727-204.31-4.0809-75.667-34.82-126.34-95.13-134.37-151.74 19.107-11.76 42.825-18.94 69.059-21.38z" style="stroke-linejoin:round;stroke-opacity:.83784;fill-rule:evenodd;stroke:#e9001d;stroke-linecap:round;stroke-width:1.3389;fill:url(#linearGradient4173)"/></g><g id="g4292" transform="matrix(-1 0 0 -1 752.73 2545.5)"><path id="path4294" d="m376.45 4.0316c-48.67 31.124-82.69 101.87-82.69 184.14 0 82.273 34.021 152.99 82.687 184.12 48.666-31.125 82.687-101.84 82.687-184.12 0-82.273-34.021-153.02-82.687-184.14z" style="stroke-linejoin:round;stroke-opacity:.83784;fill-rule:evenodd;stroke:#e9001d;stroke-linecap:round;stroke-width:1.3389;fill:url(#linearGradient4191)"/><path id="path4296" d="m544.64 38.568c-32.848 4.7412-66.822 23.286-96.412 52.256 11.232 29.067 17.662 62.595 17.662 98.3 0 80.029-32.254 149-78.802 181.35 0.55227 0.91087 1.0424 1.8812 1.6151 2.7719 57.408-8.286 118.29-58.587 153.12-133.36 34.834-74.773 33.865-153.03 2.8134-201.32z" style="stroke-linejoin:round;stroke-opacity:.83784;fill-rule:evenodd;stroke:#e9001d;stroke-linecap:round;stroke-width:1.3389;fill:url(#linearGradient4188)"/><path id="path4298" d="m637.53 125.41c-20.461-0.21032-42.373 3.573-64.526 11.036-0.77417 33.954-9.1584 70.833-25.972 106.92-34.703 74.49-95.256 124.66-152.47 133.23 0.0559 0.35461 0.0712 0.72461 0.13021 1.078 56.129 14.478 132.09-8.393 193.81-63.805 61.724-55.412 91.901-127.82 82.475-184.23-10.524-2.7147-21.753-4.1146-33.449-4.2349z" style="stroke-linejoin:round;stroke-opacity:.83784;fill-rule:evenodd;stroke:#e9001d;stroke-linecap:round;stroke-width:1.3389;fill:url(#linearGradient4185)"/><path id="path4300" d="m668 207.17c-12.554 38.428-38.153 77.872-75.259 111.18-60.36 54.187-134.28 77.172-190.01 64.627-1.4134 0.26082-2.8364 0.58512-4.2462 0.79564-0.0358 0.19632-0.0764 0.39462-0.1042 0.59031 49.214 30.277 128.65 30.727 204.31-4.0809 75.663-34.808 126.33-95.123 134.37-151.74-19.108-11.755-42.826-18.937-69.059-21.38z" style="stroke-linejoin:round;stroke-opacity:.83784;fill-rule:evenodd;stroke:#e9001d;stroke-linecap:round;stroke-width:1.3389;fill:url(#linearGradient4182)"/><path id="path4302" d="m209.29 38.27c32.848 4.7412 66.822 23.286 96.412 52.256-11.232 29.067-17.662 62.595-17.662 98.3 0 80.029 32.254 149 78.802 181.35-0.55227 0.91087-1.0424 1.8812-1.6151 2.7719-57.4-8.28-118.28-58.58-153.12-133.36-34.83-74.77-33.86-153.03-2.81-201.32z" style="stroke-linejoin:round;stroke-opacity:.83784;fill-rule:evenodd;stroke:#e9001d;stroke-linecap:round;stroke-width:1.3389;fill:url(#linearGradient4179)"/><path id="path4304" d="m115.78 123.41c20.461-0.21032 42.373 3.573 64.526 11.036 0.77418 33.954 9.1584 70.833 25.972 106.92 34.703 74.49 95.256 124.66 152.47 133.23-0.0559 0.3546-0.0712 0.7246-0.13021 1.078-56.13 14.47-132.09-8.4-193.81-63.81-61.73-55.41-91.902-127.82-82.476-184.23 10.524-2.7147 21.753-4.1146 33.449-4.2349z" style="stroke-linejoin:round;stroke-opacity:.83784;fill-rule:evenodd;stroke:#e9001d;stroke-linecap:round;stroke-width:1.3389;fill:url(#linearGradient4176)"/><path id="path4306" d="m84.729 204.67c12.554 38.428 38.153 77.872 75.259 111.18 60.36 54.187 134.28 77.172 190.01 64.627 1.4134 0.26083 2.8364 0.58513 4.2462 0.79564 0.0358 0.19632 0.0764 0.39463 0.1042 0.59032-49.214 30.277-128.65 30.727-204.31-4.0809-75.667-34.82-126.34-95.13-134.37-151.74 19.107-11.76 42.825-18.94 69.059-21.38z" style="stroke-linejoin:round;stroke-opacity:.83784;fill-rule:evenodd;stroke:#e9001d;stroke-linecap:round;stroke-width:1.3389;fill:url(#linearGradient4173)"/></g><g id="g4322" transform="matrix(-.70711 .70711 -.70711 -.70711 1542.4 1906.5)"><path id="path4324" d="m376.45 4.0316c-48.67 31.124-82.69 101.87-82.69 184.14 0 82.273 34.021 152.99 82.687 184.12 48.666-31.125 82.687-101.84 82.687-184.12 0-82.273-34.021-153.02-82.687-184.14z" style="stroke-linejoin:round;stroke-opacity:.83784;fill-rule:evenodd;stroke:#e9001d;stroke-linecap:round;stroke-width:1.3389;fill:url(#linearGradient4191)"/><path id="path4326" d="m544.64 38.568c-32.848 4.7412-66.822 23.286-96.412 52.256 11.232 29.067 17.662 62.595 17.662 98.3 0 80.029-32.254 149-78.802 181.35 0.55227 0.91087 1.0424 1.8812 1.6151 2.7719 57.408-8.286 118.29-58.587 153.12-133.36 34.834-74.773 33.865-153.03 2.8134-201.32z" style="stroke-linejoin:round;stroke-opacity:.83784;fill-rule:evenodd;stroke:#e9001d;stroke-linecap:round;stroke-width:1.3389;fill:url(#linearGradient4188)"/><path id="path4328" d="m637.53 125.41c-20.461-0.21032-42.373 3.573-64.526 11.036-0.77417 33.954-9.1584 70.833-25.972 106.92-34.703 74.49-95.256 124.66-152.47 133.23 0.0559 0.35461 0.0712 0.72461 0.13021 1.078 56.129 14.478 132.09-8.393 193.81-63.805 61.724-55.412 91.901-127.82 82.475-184.23-10.524-2.7147-21.753-4.1146-33.449-4.2349z" style="stroke-linejoin:round;stroke-opacity:.83784;fill-rule:evenodd;stroke:#e9001d;stroke-linecap:round;stroke-width:1.3389;fill:url(#linearGradient4185)"/><path id="path4330" d="m668 207.17c-12.554 38.428-38.153 77.872-75.259 111.18-60.36 54.187-134.28 77.172-190.01 64.627-1.4134 0.26082-2.8364 0.58512-4.2462 0.79564-0.0358 0.19632-0.0764 0.39462-0.1042 0.59031 49.214 30.277 128.65 30.727 204.31-4.0809 75.663-34.808 126.33-95.123 134.37-151.74-19.108-11.755-42.826-18.937-69.059-21.38z" style="stroke-linejoin:round;stroke-opacity:.83784;fill-rule:evenodd;stroke:#e9001d;stroke-linecap:round;stroke-width:1.3389;fill:url(#linearGradient4182)"/><path id="path4332" d="m209.29 38.27c32.848 4.7412 66.822 23.286 96.412 52.256-11.232 29.067-17.662 62.595-17.662 98.3 0 80.029 32.254 149 78.802 181.35-0.55227 0.91087-1.0424 1.8812-1.6151 2.7719-57.4-8.28-118.28-58.58-153.12-133.36-34.83-74.77-33.86-153.03-2.81-201.32z" style="stroke-linejoin:round;stroke-opacity:.83784;fill-rule:evenodd;stroke:#e9001d;stroke-linecap:round;stroke-width:1.3389;fill:url(#linearGradient4179)"/><path id="path4334" d="m115.78 123.41c20.461-0.21032 42.373 3.573 64.526 11.036 0.77418 33.954 9.1584 70.833 25.972 106.92 34.703 74.49 95.256 124.66 152.47 133.23-0.0559 0.3546-0.0712 0.7246-0.13021 1.078-56.13 14.47-132.09-8.4-193.81-63.81-61.73-55.41-91.902-127.82-82.476-184.23 10.524-2.7147 21.753-4.1146 33.449-4.2349z" style="stroke-linejoin:round;stroke-opacity:.83784;fill-rule:evenodd;stroke:#e9001d;stroke-linecap:round;stroke-width:1.3389;fill:url(#linearGradient4176)"/><path id="path4336" d="m84.729 204.67c12.554 38.428 38.153 77.872 75.259 111.18 60.36 54.187 134.28 77.172 190.01 64.627 1.4134 0.26083 2.8364 0.58513 4.2462 0.79564 0.0358 0.19632 0.0764 0.39463 0.1042 0.59032-49.214 30.277-128.65 30.727-204.31-4.0809-75.667-34.82-126.34-95.13-134.37-151.74 19.107-11.76 42.825-18.94 69.059-21.38z" style="stroke-linejoin:round;stroke-opacity:.83784;fill-rule:evenodd;stroke:#e9001d;stroke-linecap:round;stroke-width:1.3389;fill:url(#linearGradient4173)"/></g><g id="g4352" transform="matrix(0 1 -1 0 1649.1 896.36)"><path id="path4354" d="m376.45 4.0316c-48.67 31.124-82.69 101.87-82.69 184.14 0 82.273 34.021 152.99 82.687 184.12 48.666-31.125 82.687-101.84 82.687-184.12 0-82.273-34.021-153.02-82.687-184.14z" style="stroke-linejoin:round;stroke-opacity:.83784;fill-rule:evenodd;stroke:#e9001d;stroke-linecap:round;stroke-width:1.3389;fill:url(#linearGradient4191)"/><path id="path4356" d="m544.64 38.568c-32.848 4.7412-66.822 23.286-96.412 52.256 11.232 29.067 17.662 62.595 17.662 98.3 0 80.029-32.254 149-78.802 181.35 0.55227 0.91087 1.0424 1.8812 1.6151 2.7719 57.408-8.286 118.29-58.587 153.12-133.36 34.834-74.773 33.865-153.03 2.8134-201.32z" style="stroke-linejoin:round;stroke-opacity:.83784;fill-rule:evenodd;stroke:#e9001d;stroke-linecap:round;stroke-width:1.3389;fill:url(#linearGradient4188)"/><path id="path4358" d="m637.53 125.41c-20.461-0.21032-42.373 3.573-64.526 11.036-0.77417 33.954-9.1584 70.833-25.972 106.92-34.703 74.49-95.256 124.66-152.47 133.23 0.0559 0.35461 0.0712 0.72461 0.13021 1.078 56.129 14.478 132.09-8.393 193.81-63.805 61.724-55.412 91.901-127.82 82.475-184.23-10.524-2.7147-21.753-4.1146-33.449-4.2349z" style="stroke-linejoin:round;stroke-opacity:.83784;fill-rule:evenodd;stroke:#e9001d;stroke-linecap:round;stroke-width:1.3389;fill:url(#linearGradient4185)"/><path id="path4360" d="m668 207.17c-12.554 38.428-38.153 77.872-75.259 111.18-60.36 54.187-134.28 77.172-190.01 64.627-1.4134 0.26082-2.8364 0.58512-4.2462 0.79564-0.0358 0.19632-0.0764 0.39462-0.1042 0.59031 49.214 30.277 128.65 30.727 204.31-4.0809 75.663-34.808 126.33-95.123 134.37-151.74-19.108-11.755-42.826-18.937-69.059-21.38z" style="stroke-linejoin:round;stroke-opacity:.83784;fill-rule:evenodd;stroke:#e9001d;stroke-linecap:round;stroke-width:1.3389;fill:url(#linearGradient4182)"/><path id="path4362" d="m209.29 38.27c32.848 4.7412 66.822 23.286 96.412 52.256-11.232 29.067-17.662 62.595-17.662 98.3 0 80.029 32.254 149 78.802 181.35-0.55227 0.91087-1.0424 1.8812-1.6151 2.7719-57.4-8.28-118.28-58.58-153.12-133.36-34.83-74.77-33.86-153.03-2.81-201.32z" style="stroke-linejoin:round;stroke-opacity:.83784;fill-rule:evenodd;stroke:#e9001d;stroke-linecap:round;stroke-width:1.3389;fill:url(#linearGradient4179)"/><path id="path4364" d="m115.78 123.41c20.461-0.21032 42.373 3.573 64.526 11.036 0.77418 33.954 9.1584 70.833 25.972 106.92 34.703 74.49 95.256 124.66 152.47 133.23-0.0559 0.3546-0.0712 0.7246-0.13021 1.078-56.13 14.47-132.09-8.4-193.81-63.81-61.73-55.41-91.902-127.82-82.476-184.23 10.524-2.7147 21.753-4.1146 33.449-4.2349z" style="stroke-linejoin:round;stroke-opacity:.83784;fill-rule:evenodd;stroke:#e9001d;stroke-linecap:round;stroke-width:1.3389;fill:url(#linearGradient4176)"/><path id="path4366" d="m84.729 204.67c12.554 38.428 38.153 77.872 75.259 111.18 60.36 54.187 134.28 77.172 190.01 64.627 1.4134 0.26083 2.8364 0.58513 4.2462 0.79564 0.0358 0.19632 0.0764 0.39463 0.1042 0.59032-49.214 30.277-128.65 30.727-204.31-4.0809-75.667-34.82-126.34-95.13-134.37-151.74 19.107-11.76 42.825-18.94 69.059-21.38z" style="stroke-linejoin:round;stroke-opacity:.83784;fill-rule:evenodd;stroke:#e9001d;stroke-linecap:round;stroke-width:1.3389;fill:url(#linearGradient4173)"/></g><g id="g4382" transform="matrix(.70711 .70711 -.70711 .70711 1010.2 106.64)"><path id="path4384" d="m376.45 4.0316c-48.67 31.124-82.69 101.87-82.69 184.14 0 82.273 34.021 152.99 82.687 184.12 48.666-31.125 82.687-101.84 82.687-184.12 0-82.273-34.021-153.02-82.687-184.14z" style="stroke-linejoin:round;stroke-opacity:.83784;fill-rule:evenodd;stroke:#e9001d;stroke-linecap:round;stroke-width:1.3389;fill:url(#linearGradient4191)"/><path id="path4386" d="m544.64 38.568c-32.848 4.7412-66.822 23.286-96.412 52.256 11.232 29.067 17.662 62.595 17.662 98.3 0 80.029-32.254 149-78.802 181.35 0.55227 0.91087 1.0424 1.8812 1.6151 2.7719 57.408-8.286 118.29-58.587 153.12-133.36 34.834-74.773 33.865-153.03 2.8134-201.32z" style="stroke-linejoin:round;stroke-opacity:.83784;fill-rule:evenodd;stroke:#e9001d;stroke-linecap:round;stroke-width:1.3389;fill:url(#linearGradient4188)"/><path id="path4388" d="m637.53 125.41c-20.461-0.21032-42.373 3.573-64.526 11.036-0.77417 33.954-9.1584 70.833-25.972 106.92-34.703 74.49-95.256 124.66-152.47 133.23 0.0559 0.35461 0.0712 0.72461 0.13021 1.078 56.129 14.478 132.09-8.393 193.81-63.805 61.724-55.412 91.901-127.82 82.475-184.23-10.524-2.7147-21.753-4.1146-33.449-4.2349z" style="stroke-linejoin:round;stroke-opacity:.83784;fill-rule:evenodd;stroke:#e9001d;stroke-linecap:round;stroke-width:1.3389;fill:url(#linearGradient4185)"/><path id="path4390" d="m668 207.17c-12.554 38.428-38.153 77.872-75.259 111.18-60.36 54.187-134.28 77.172-190.01 64.627-1.4134 0.26082-2.8364 0.58512-4.2462 0.79564-0.0358 0.19632-0.0764 0.39462-0.1042 0.59031 49.214 30.277 128.65 30.727 204.31-4.0809 75.663-34.808 126.33-95.123 134.37-151.74-19.108-11.755-42.826-18.937-69.059-21.38z" style="stroke-linejoin:round;stroke-opacity:.83784;fill-rule:evenodd;stroke:#e9001d;stroke-linecap:round;stroke-width:1.3389;fill:url(#linearGradient4182)"/><path id="path4392" d="m209.29 38.27c32.848 4.7412 66.822 23.286 96.412 52.256-11.232 29.067-17.662 62.595-17.662 98.3 0 80.029 32.254 149 78.802 181.35-0.55227 0.91087-1.0424 1.8812-1.6151 2.7719-57.4-8.28-118.28-58.58-153.12-133.36-34.83-74.77-33.86-153.03-2.81-201.32z" style="stroke-linejoin:round;stroke-opacity:.83784;fill-rule:evenodd;stroke:#e9001d;stroke-linecap:round;stroke-width:1.3389;fill:url(#linearGradient4179)"/><path id="path4394" d="m115.78 123.41c20.461-0.21032 42.373 3.573 64.526 11.036 0.77418 33.954 9.1584 70.833 25.972 106.92 34.703 74.49 95.256 124.66 152.47 133.23-0.0559 0.3546-0.0712 0.7246-0.13021 1.078-56.13 14.47-132.09-8.4-193.81-63.81-61.73-55.41-91.902-127.82-82.476-184.23 10.524-2.7147 21.753-4.1146 33.449-4.2349z" style="stroke-linejoin:round;stroke-opacity:.83784;fill-rule:evenodd;stroke:#e9001d;stroke-linecap:round;stroke-width:1.3389;fill:url(#linearGradient4176)"/><path id="path4396" d="m84.729 204.67c12.554 38.428 38.153 77.872 75.259 111.18 60.36 54.187 134.28 77.172 190.01 64.627 1.4134 0.26083 2.8364 0.58513 4.2462 0.79564 0.0358 0.19632 0.0764 0.39463 0.1042 0.59032-49.214 30.277-128.65 30.727-204.31-4.0809-75.667-34.82-126.34-95.13-134.37-151.74 19.107-11.76 42.825-18.94 69.059-21.38z" style="stroke-linejoin:round;stroke-opacity:.83784;fill-rule:evenodd;stroke:#e9001d;stroke-linecap:round;stroke-width:1.3389;fill:url(#linearGradient4173)"/></g></g><path id="path4944" d="m2589.8-909.02c-3570.3 3570.3 4437.8 253.24-611.38 253.24-5049.2 0.00001 2958.9 3317.1-611.38-253.24s-253.24 4437.8-253.24-611.38-3317.1 2958.9 253.24-611.38-4437.8-253.24 611.38-253.24-2958.9-3317.1 611.38 253.24 253.24-4437.8 253.24 611.38 3317.1-2958.9-253.24 611.38z" transform="matrix(-.070839 -.17102 .17102 -.070839 820.55 1466.8)" style="opacity:.99;fill-rule:evenodd;stroke:#a31e20;stroke-linecap:round;stroke-width:3;fill:url(#radialGradient4960)"/></g><metadata/></svg>