<svg xmlns="http://www.w3.org/2000/svg" xmlns:xlink="http://www.w3.org/1999/xlink" version="1.1" viewBox="0 0 1000 1000"><g id="BlueMandala"><title>Blue Mandala, by Adam Stanislav</title><defs><radialGradient id="RG1" cx="0" cy="0" r="1" gradientTransform="matrix(1203 0 0 1062.4 1.2351 546.25)" gradientUnits="userSpaceOnUse"><stop offset="0" stop-color="#150996"/><stop offset=".5" stop-color="#168B8E"/><stop offset="1" stop-color="#210DBF"/></radialGradient><radialGradient id="RG2" cx="0" cy="0" r="1" gradientTransform="matrix(439.28,0,0,439.28,500,500)" gradientUnits="userSpaceOnUse" xlink:href="#RG1"/></defs><path fill="url(#RG1)" d="m330.4 90.509c44.514-56.154 104.13-90.509 169.6-90.509 65.48 0 125.1 34.361 169.63 90.519 71.183-8.231 137.63 9.63 183.93 55.928 46.302 46.301 64.162 112.76 55.938 183.95 56.154 44.514 90.509 104.13 90.509 169.6 0 65.48-34.361 125.1-90.519 169.63 8.231 71.183-9.63 137.63-55.928 183.93-46.301 46.302-112.76 64.162-183.95 55.938-44.514 56.154-104.13 90.509-169.6 90.509-65.48 0-125.1-34.361-169.63-90.519-71.183 8.231-137.63-9.63-183.93-55.928-46.302-46.301-64.162-112.76-55.938-183.95-56.154-44.514-90.509-104.13-90.509-169.6 0-65.48 34.361-125.1 90.519-169.63-8.231-71.183 9.63-137.63 55.928-183.93 46.301-46.302 112.76-64.162 183.95-55.938z"/><circle cx="500" cy="500" r="440" fill="url(#RG2)" stroke="#2D09A2" stroke-width="3"/></g></svg>