<svg xmlns="http://www.w3.org/2000/svg" xmlns:ns1="http://sozi.baierouge.fr" xmlns:svg="http://www.w3.org/2000/svg" xmlns:xlink="http://www.w3.org/1999/xlink" id="Calque_1" x="0" y="0" enable-background="new 0 0 368 327" version="1.1" viewBox="0 0 888.809 727.927" xml:space="preserve"><g id="g3" transform="matrix(2.6019 0 0 2.4767 -33.799 -57.097)"><linearGradient id="SVGID_1_" x1="213.28" x2="271.69" y1="226.22" y2="293.36" gradientUnits="userSpaceOnUse"><stop id="stop6" offset="0" style="stop-color:#fff"/><stop id="stop8" offset=".109" style="stop-color:#fcdbfb"/><stop id="stop10" offset=".265" style="stop-color:#f8aef6"/><stop id="stop12" offset=".385" style="stop-color:#f692f3"/><stop id="stop14" offset=".455" style="stop-color:#f587f2"/></linearGradient><path id="path16" d="m220.39 222.21s67.057 4 64.028 70.5v8s-47.528 10.9-80.028-41.3l-8.861-20.7 24.861-16.5z" style="stroke:#d5d6d7;stroke-width:.19697;fill:url(#SVGID_1_)"/><linearGradient id="SVGID_2_" x1="153.49" x2="114.64" y1="250.69" y2="292.99" gradientUnits="userSpaceOnUse"><stop id="stop19" offset="0" style="stop-color:#fff"/><stop id="stop21" offset=".109" style="stop-color:#fcdbfb"/><stop id="stop23" offset=".265" style="stop-color:#f8aef6"/><stop id="stop25" offset=".385" style="stop-color:#f692f3"/><stop id="stop27" offset=".455" style="stop-color:#f587f2"/></linearGradient><path id="path29" d="m134.56 234.28s-22.427 12.719-24.495 66.719c0 0 41.155 14.756 57.432-39l-32.937-27.719z" style="stroke:#d5d6d7;stroke-width:.19697;fill:url(#SVGID_2_)"/><linearGradient id="SVGID_3_" x1="13.533" x2="150.03" y1="224.8" y2="224.8" gradientUnits="userSpaceOnUse"><stop id="stop32" offset=".127" style="stop-color:#fff"/><stop id="stop34" offset=".176" style="stop-color:#fde8fc"/><stop id="stop36" offset=".252" style="stop-color:#fbcaf9"/><stop id="stop38" offset=".337" style="stop-color:#f9b1f7"/><stop id="stop40" offset=".431" style="stop-color:#f79ef5"/><stop id="stop42" offset=".542" style="stop-color:#f691f3"/><stop id="stop44" offset=".683" style="stop-color:#f589f2"/><stop id="stop46" offset=".957" style="stop-color:#f587f2"/></linearGradient><path id="path48" d="m150.03 227.25s-21.03 28.75-61.53 18.25-77.238-36.66-74.857-43.7" style="stroke:#d5d6d7;stroke-width:.19697;fill:url(#SVGID_3_)"/><linearGradient id="SVGID_4_" x1="236.11" x2="354.5" y1="198.89" y2="198.89" gradientUnits="userSpaceOnUse"><stop id="stop51" offset=".127" style="stop-color:#fff"/><stop id="stop53" offset=".13" style="stop-color:#fffeff"/><stop id="stop55" offset=".243" style="stop-color:#fcdafb"/><stop id="stop57" offset=".362" style="stop-color:#f9bcf8"/><stop id="stop59" offset=".487" style="stop-color:#f7a5f5"/><stop id="stop61" offset=".62" style="stop-color:#f694f3"/><stop id="stop63" offset=".768" style="stop-color:#f58af2"/><stop id="stop65" offset=".957" style="stop-color:#f587f2"/></linearGradient><path id="path67" d="m354.5 163.5s0 28.5-52.5 55.5-65.886 10-65.886 10" style="stroke:#d5d6d7;stroke-width:.19697;fill:url(#SVGID_4_)"/><linearGradient id="SVGID_5_" x1="172.01" x2="155.75" y1="151.24" y2="74.271" gradientUnits="userSpaceOnUse"><stop id="stop70" offset=".127" style="stop-color:#fff"/><stop id="stop72" offset=".326" style="stop-color:#fcdbfb"/><stop id="stop74" offset=".61" style="stop-color:#f8aef6"/><stop id="stop76" offset=".83" style="stop-color:#f692f3"/><stop id="stop78" offset=".957" style="stop-color:#f587f2"/></linearGradient><path id="path80" d="m140.5 156.5s-33.5-21-9-108c0 0 4.5-34.991 20-22.746 15.5 12.249 55.5 33.25 49 80.75l-6.5 47.5-53.5 2.5z" style="stroke:#d5d6d7;stroke-width:.19697;fill:url(#SVGID_5_)"/><linearGradient id="SVGID_6_" x1="242.21" x2="325.5" y1="126.25" y2="126.25" gradientUnits="userSpaceOnUse"><stop id="stop83" offset=".127" style="stop-color:#fff"/><stop id="stop85" offset=".177" style="stop-color:#fde6fc"/><stop id="stop87" offset=".251" style="stop-color:#fac9f9"/><stop id="stop89" offset=".333" style="stop-color:#f8b1f7"/><stop id="stop91" offset=".425" style="stop-color:#f79ef4"/><stop id="stop93" offset=".534" style="stop-color:#f691f3"/><stop id="stop95" offset=".674" style="stop-color:#f589f2"/><stop id="stop97" offset=".957" style="stop-color:#f587f2"/></linearGradient><path id="path99" d="m325.5 76.5s-15.5 75.5-59.5 99.5c0 0-16.943-3.35-23.792-24.616" style="stroke:#d5d6d7;stroke-width:.19697;fill:url(#SVGID_6_)"/><linearGradient id="SVGID_7_" x1="241.18" x2="304.46" y1="144.09" y2="83.089" gradientUnits="userSpaceOnUse"><stop id="stop102" offset=".127" style="stop-color:#fff"/><stop id="stop104" offset=".177" style="stop-color:#fde6fc"/><stop id="stop106" offset=".251" style="stop-color:#fac9f9"/><stop id="stop108" offset=".333" style="stop-color:#f8b1f7"/><stop id="stop110" offset=".425" style="stop-color:#f79ef4"/><stop id="stop112" offset=".534" style="stop-color:#f691f3"/><stop id="stop114" offset=".674" style="stop-color:#f589f2"/><stop id="stop116" offset=".957" style="stop-color:#f587f2"/></linearGradient><path id="path118" d="m238.5 113.5s2.5-27.5 53-37c0 0 36.5-7.5 34 0s-24 63-59.5 80-27.5-43-27.5-43z" style="stroke:#d5d6d7;stroke-width:.19697;fill:url(#SVGID_7_)"/><linearGradient id="SVGID_8_" x1="219" x2="245.82" y1="93.774" y2="93.774" gradientUnits="userSpaceOnUse"><stop id="stop121" offset=".127" style="stop-color:#fff"/><stop id="stop123" offset=".326" style="stop-color:#fcdbfb"/><stop id="stop125" offset=".61" style="stop-color:#f8aef6"/><stop id="stop127" offset=".83" style="stop-color:#f692f3"/><stop id="stop129" offset=".957" style="stop-color:#f587f2"/></linearGradient><path id="path131" d="m221 25.754s9.887-19.531 23.763 98.215c0.079 0.672 0.158 1.349 0.237 2.031 0 0 8 19.011-26 37.005" style="stroke:#d5d6d7;stroke-width:.098483;fill:url(#SVGID_8_)"/><linearGradient id="SVGID_9_" x1="202.08" x2="223.27" y1="150.61" y2="35.271" gradientUnits="userSpaceOnUse"><stop id="stop134" offset=".127" style="stop-color:#fff"/><stop id="stop136" offset=".326" style="stop-color:#fcdbfb"/><stop id="stop138" offset=".61" style="stop-color:#f8aef6"/><stop id="stop140" offset=".83" style="stop-color:#f692f3"/><stop id="stop142" offset=".957" style="stop-color:#f587f2"/></linearGradient><path id="path144" d="m185.5 144.5s-19.5-50.5 23-107.5c0 0 16.5-32.5 20 13s17.5 79-4.5 107.5l-5 5.505-33.5-18.505z" style="stroke:#d5d6d7;stroke-width:.19697;fill:url(#SVGID_9_)"/><linearGradient id="SVGID_10_" x1="214" x2="354.5" y1="186.31" y2="186.31" gradientUnits="userSpaceOnUse"><stop id="stop147" offset=".127" style="stop-color:#fff"/><stop id="stop149" offset=".13" style="stop-color:#fffeff"/><stop id="stop151" offset=".243" style="stop-color:#fcdafb"/><stop id="stop153" offset=".362" style="stop-color:#f9bcf8"/><stop id="stop155" offset=".487" style="stop-color:#f7a5f5"/><stop id="stop157" offset=".62" style="stop-color:#f694f3"/><stop id="stop159" offset=".768" style="stop-color:#f58af2"/><stop id="stop161" offset=".957" style="stop-color:#f587f2"/></linearGradient><path id="path163" d="m287.5 147s18.5-14.5 67 16.5c0 0-50.5 35.5-82.5 50s-35.89 15.5-35.89 15.5l-22.11-32.5 73.5-49.5z" style="stroke:#d5d6d7;stroke-width:.19697;fill:url(#SVGID_10_)"/><linearGradient id="SVGID_11_" x1="28.488" x2="110.07" y1="136.39" y2="136.39" gradientUnits="userSpaceOnUse"><stop id="stop166" offset=".127" style="stop-color:#fff"/><stop id="stop168" offset=".176" style="stop-color:#fde8fc"/><stop id="stop170" offset=".252" style="stop-color:#fbcaf9"/><stop id="stop172" offset=".337" style="stop-color:#f9b1f7"/><stop id="stop174" offset=".431" style="stop-color:#f79ef5"/><stop id="stop176" offset=".542" style="stop-color:#f691f3"/><stop id="stop178" offset=".683" style="stop-color:#f589f2"/><stop id="stop180" offset=".957" style="stop-color:#f587f2"/></linearGradient><path id="path182" d="m29.42 84.445s-5.92-1.245 12.08 31.905 42.092 74.01 68.568 71.911" style="stroke:#d5d6d7;stroke-width:.19697;fill:url(#SVGID_11_)"/><linearGradient id="SVGID_12_" x1="158.98" x2="21.476" y1="202.21" y2="197.71" gradientUnits="userSpaceOnUse"><stop id="stop185" offset=".127" style="stop-color:#fff"/><stop id="stop187" offset=".176" style="stop-color:#fde8fc"/><stop id="stop189" offset=".252" style="stop-color:#fbcaf9"/><stop id="stop191" offset=".337" style="stop-color:#f9b1f7"/><stop id="stop193" offset=".431" style="stop-color:#f79ef5"/><stop id="stop195" offset=".542" style="stop-color:#f691f3"/><stop id="stop197" offset=".683" style="stop-color:#f589f2"/><stop id="stop199" offset=".957" style="stop-color:#f587f2"/></linearGradient><path id="path201" d="m150.03 227.25s-123.03-4.77-133.03-19.51 0-10.74 20.5-26.24 55-5.156 63.5 8.672 49.03 37.081 49.03 37.081z" style="stroke:#d5d6d7;stroke-width:.19697;fill:url(#SVGID_12_)"/><radialGradient id="SVGID_13_" cx="178.85" cy="266.2" r="60.862" fx="180.21" fy="244.88" gradientTransform="matrix(1 0 0 2.5387 0 -409.6)" gradientUnits="userSpaceOnUse"><stop id="stop204" offset="0" style="stop-color:#fff"/><stop id="stop206" offset=".109" style="stop-color:#fcdbfb"/><stop id="stop208" offset=".265" style="stop-color:#f8aef6"/><stop id="stop210" offset=".385" style="stop-color:#f692f3"/><stop id="stop212" offset=".455" style="stop-color:#f587f2"/></radialGradient><path id="path214" d="m135.5 239.48s-9.5 42.519 32 74.019c0 0 11.5 10 21-4.5s50.473-47.521 27.986-74.719c-22.49-27.2-18.49-16.78-18.49-16.78l-47.97-1.96-14.53 23.941z" style="stroke:#d5d6d7;stroke-width:.19697;fill:url(#SVGID_13_)"/><linearGradient id="SVGID_14_" x1="137.82" x2="64.551" y1="181.34" y2="94.983" gradientUnits="userSpaceOnUse"><stop id="stop217" offset=".127" style="stop-color:#fff"/><stop id="stop219" offset=".176" style="stop-color:#fde8fc"/><stop id="stop221" offset=".252" style="stop-color:#fbcaf9"/><stop id="stop223" offset=".337" style="stop-color:#f9b1f7"/><stop id="stop225" offset=".431" style="stop-color:#f79ef5"/><stop id="stop227" offset=".542" style="stop-color:#f691f3"/><stop id="stop229" offset=".683" style="stop-color:#f589f2"/><stop id="stop231" offset=".957" style="stop-color:#f587f2"/></linearGradient><path id="path233" d="m136 126.6s-18.5-43.25-89.5-43.25c0 0-30-7-12 14.5s45 105.5 101.5 91l6-25.822-6-36.428z" style="stroke:#d5d6d7;stroke-width:.19697;fill:url(#SVGID_14_)"/><g id="g235"><path id="path237" d="m148.04 165.7s16.49 48.135 18.552 53.172c2.062 5.039 37.457 2.879 37.457 2.879l17.343-56.051c-0.001 0-33.522-38.777-73.352 0z" style="stroke:#f29d80;stroke-width:.098483;fill:#f6ea60"/><ellipse id="ellipse239" cx="184.71" cy="165.7" d="m 221.389,165.69501 c 0,11.26661 -16.42041,20.4 -36.676,20.4 -20.2556,0 -36.676,-9.13339 -36.676,-20.4 0,-11.26661 16.4204,-20.4 36.676,-20.4 20.25559,0 36.676,9.13339 36.676,20.4 z" rx="36.676" ry="20.4" style="stroke:#f29d80;stroke-width:.098483;fill:#f6ea60"/><ellipse id="ellipse241" cx="184.71" cy="165.7" d="m 213.06501,165.69501 c 0,7.66516 -12.69407,13.879 -28.353,13.879 -15.65893,0 -28.35301,-6.21384 -28.35301,-13.879 0,-7.66516 12.69408,-13.879 28.35301,-13.879 15.65893,0 28.353,6.21384 28.353,13.879 z" rx="28.353" ry="13.879" style="fill:#f6ae80"/><ellipse id="ellipse243" cx="166.59" cy="162.82" d="m 173.007,162.81599 c 0,1.59003 -2.87343,2.879 -6.418,2.879 -3.54456,0 -6.418,-1.28897 -6.418,-2.879 0,-1.59002 2.87344,-2.879 6.418,-2.879 3.54457,0 6.418,1.28898 6.418,2.879 z" rx="6.418" ry="2.879" style="stroke:#f29d80;stroke-width:.098483;fill:#f6ea60"/><ellipse id="ellipse245" cx="174.1" cy="171.45" d="m 180.51399,171.453 c 0,1.59003 -2.87343,2.879 -6.418,2.879 -3.54456,0 -6.418,-1.28897 -6.418,-2.879 0,-1.59002 2.87344,-2.879 6.418,-2.879 3.54457,0 6.418,1.28898 6.418,2.879 z" rx="6.418" ry="2.879" style="stroke:#f29d80;stroke-width:.098483;fill:#f6ea60"/><ellipse id="ellipse247" cx="195.53" cy="172.89" d="m 201.94701,172.894 c 0,1.59002 -2.87344,2.879 -6.418,2.879 -3.54457,0 -6.418,-1.28898 -6.418,-2.879 0,-1.59003 2.87343,-2.879 6.418,-2.879 3.54456,0 6.418,1.28897 6.418,2.879 z" rx="6.418" ry="2.879" style="stroke:#f29d80;stroke-width:.098483;fill:#f6ea60"/><ellipse id="ellipse249" cx="185.84" cy="165.7" d="m 192.261,165.69501 c 0,1.59003 -2.87343,2.879 -6.418,2.879 -3.54456,0 -6.418,-1.28897 -6.418,-2.879 0,-1.59003 2.87344,-2.879 6.418,-2.879 3.54457,0 6.418,1.28897 6.418,2.879 z" rx="6.418" ry="2.879" style="stroke:#f29d80;stroke-width:.098483;fill:#f6ea60"/><ellipse id="ellipse251" cx="204.05" cy="165.7" d="m 210.46401,165.69501 c 0,1.59003 -2.87344,2.879 -6.418,2.879 -3.54457,0 -6.418,-1.28897 -6.418,-2.879 0,-1.59003 2.87343,-2.879 6.418,-2.879 3.54456,0 6.418,1.28897 6.418,2.879 z" rx="6.418" ry="2.879" style="stroke:#f29d80;stroke-width:.098483;fill:#f6ea60"/><ellipse id="ellipse253" cx="194.44" cy="159.02" d="m 200.857,159.015 c 0,1.58947 -2.87344,2.878 -6.418,2.878 -3.54457,0 -6.418,-1.28853 -6.418,-2.878 0,-1.58948 2.87343,-2.878 6.418,-2.878 3.54456,0 6.418,1.28852 6.418,2.878 z" rx="6.418" ry="2.878" style="stroke:#f29d80;stroke-width:.098483;fill:#f6ea60"/><ellipse id="ellipse255" cx="179.43" cy="157.58" d="m 185.844,157.575 c 0,1.58947 -2.87344,2.878 -6.41801,2.878 -3.54456,0 -6.418,-1.28853 -6.418,-2.878 0,-1.58948 2.87344,-2.878 6.418,-2.878 3.54457,0 6.41801,1.28852 6.41801,2.878 z" rx="6.418" ry="2.878" style="stroke:#f29d80;stroke-width:.098483;fill:#f6ea60"/></g><linearGradient id="SVGID_15_" x1="177.83" x2="165.81" y1="215.8" y2="152.67" gradientUnits="userSpaceOnUse"><stop id="stop258" offset=".127" style="stop-color:#fff"/><stop id="stop260" offset=".326" style="stop-color:#fcdbfb"/><stop id="stop262" offset=".61" style="stop-color:#f8aef6"/><stop id="stop264" offset=".83" style="stop-color:#f692f3"/><stop id="stop266" offset=".957" style="stop-color:#f587f2"/></linearGradient><path id="path268" d="m151 207.74s-25-37.241-6-79.241 50.916 32 56.208 47.5-13.708 41.5-13.708 41.5-16.5 11.982-36.5-9.759z" style="stroke:#d5d6d7;stroke-width:.19697;fill:url(#SVGID_15_)"/><linearGradient id="SVGID_16_" x1="209.86" x2="270.13" y1="202.6" y2="142.62" gradientUnits="userSpaceOnUse"><stop id="stop271" offset=".127" style="stop-color:#fff"/><stop id="stop273" offset=".13" style="stop-color:#fffeff"/><stop id="stop275" offset=".243" style="stop-color:#fcdafb"/><stop id="stop277" offset=".362" style="stop-color:#f9bcf8"/><stop id="stop279" offset=".487" style="stop-color:#f7a5f5"/><stop id="stop281" offset=".62" style="stop-color:#f694f3"/><stop id="stop283" offset=".768" style="stop-color:#f58af2"/><stop id="stop285" offset=".957" style="stop-color:#f587f2"/></linearGradient><path id="path287" d="m206 206s19.42-67.344 60.5-79.75c0 0 25.5-10.25 24.5-5.75s-16.045 64-53.272 75.5l-31.73 10z" style="stroke:#d5d6d7;stroke-width:.19697;fill:url(#SVGID_16_)"/><linearGradient id="SVGID_17_" x1="186.83" x2="142.05" y1="219.56" y2="203.92" gradientUnits="userSpaceOnUse"><stop id="stop290" offset=".127" style="stop-color:#fff"/><stop id="stop292" offset=".131" style="stop-color:#fffcff"/><stop id="stop294" offset=".181" style="stop-color:#fcddfb"/><stop id="stop296" offset=".237" style="stop-color:#fac2f8"/><stop id="stop298" offset=".301" style="stop-color:#f8acf6"/><stop id="stop300" offset=".375" style="stop-color:#f79bf4"/><stop id="stop302" offset=".468" style="stop-color:#f690f3"/><stop id="stop304" offset=".597" style="stop-color:#f589f2"/><stop id="stop306" offset=".957" style="stop-color:#f587f2"/></linearGradient><path id="path308" d="m182.5 213.5s10.5-21.5-27.5-29.5-67.5 2.307-67.5 2.307l-5.5-10.31s-10 13.982 18 31.741 43 31.259 82.5 5.759z" style="stroke:#d5d6d7;stroke-width:.19697;fill:url(#SVGID_17_)"/><linearGradient id="SVGID_18_" x1="164.5" x2="268.47" y1="208.74" y2="208.74" gradientUnits="userSpaceOnUse"><stop id="stop311" offset=".127" style="stop-color:#fff"/><stop id="stop313" offset=".13" style="stop-color:#fffeff"/><stop id="stop315" offset=".243" style="stop-color:#fcdafb"/><stop id="stop317" offset=".362" style="stop-color:#f9bcf8"/><stop id="stop319" offset=".487" style="stop-color:#f7a5f5"/><stop id="stop321" offset=".62" style="stop-color:#f694f3"/><stop id="stop323" offset=".768" style="stop-color:#f58af2"/><stop id="stop325" offset=".957" style="stop-color:#f587f2"/></linearGradient><path id="path327" d="m164.5 218s18.5-20 87.5-14.5c0 0 8 4 12-10s-2.5-16.5-2.5-16.5 15 3 1 33-70.5 46.5-98 8z" style="stroke:#d5d6d7;stroke-width:.19697;fill:url(#SVGID_18_)"/></g><metadata/></svg>